<svg width="48" height="48" viewBox="0 0 48 48" fill="none" xmlns="http://www.w3.org/2000/svg">
<path d="M11.8345 9.57907L11.8344 9.58037C11.5583 11.8504 11.046 17.0139 11.046 23.99C11.046 30.97 11.5603 36.1355 11.8344 38.404L11.8344 38.4041C12.0305 40.0279 13.7127 41.001 15.2176 40.3582L15.2181 40.358C17.3068 39.4685 21.9922 37.3453 28.0919 33.8251L11.8345 9.57907ZM11.8345 9.57907C11.8793 9.20218 12.0115 8.84094 12.2204 8.52408C12.4293 8.20722 12.7093 7.94346 13.0381 7.75379C13.3668 7.56411 13.7353 7.45374 14.1142 7.43146C14.4931 7.40917 14.8719 7.47558 15.2206 7.62541L15.2215 7.62576M11.8345 9.57907L15.2215 7.62576M15.2215 7.62576C17.3311 8.5276 22.0726 10.6769 28.092 14.151C34.1133 17.6271 38.3466 20.6614 40.1804 22.0343C41.4898 23.0167 41.4929 24.9608 40.1816 25.9463L40.1816 25.9463M15.2215 7.62576L40.1816 25.9463M40.1816 25.9463C38.367 27.3103 34.1859 30.3046 28.0921 33.825L40.1816 25.9463Z" stroke="white"/>
</svg>
