<svg width="195" height="41" viewBox="0 0 195 41" fill="none" xmlns="http://www.w3.org/2000/svg">
<rect width="192" height="41" rx="15" fill="white"/>
<path d="M10.6901 11.608H15.6181V12.356H10.6901V11.608ZM13.1541 13.016C14.3971 13.016 15.2991 13.951 15.2991 15.293C15.2991 16.624 14.3971 17.559 13.1541 17.559C11.9221 17.559 11.0201 16.624 11.0201 15.293C11.0201 13.951 11.9221 13.016 13.1541 13.016ZM13.1541 13.797C12.3951 13.797 11.8451 14.413 11.8451 15.293C11.8451 16.173 12.3951 16.789 13.1541 16.789C13.9241 16.789 14.4851 16.173 14.4851 15.293C14.4851 14.413 13.9241 13.797 13.1541 13.797ZM18.2471 9.914H19.1271V19.858H18.2471V9.914ZM16.6631 14.094H18.5441V14.853H16.6631V14.094ZM16.1241 10.134H16.9821V19.374H16.1241V10.134ZM12.7141 10.2H13.6161V12.07H12.7141V10.2ZM27.6403 9.914H28.5533V15.821H27.6403V9.914ZM28.2893 12.499H30.0163V13.258H28.2893V12.499ZM25.3743 16.03C27.3873 16.03 28.6413 16.745 28.6413 17.944C28.6413 19.143 27.3873 19.847 25.3743 19.847C23.3613 19.847 22.1073 19.143 22.1073 17.944C22.1073 16.745 23.3613 16.03 25.3743 16.03ZM25.3743 16.778C23.9003 16.778 22.9983 17.196 22.9983 17.944C22.9983 18.67 23.9003 19.099 25.3743 19.099C26.8483 19.099 27.7503 18.67 27.7503 17.944C27.7503 17.196 26.8483 16.778 25.3743 16.778ZM21.2713 14.292H22.0413C24.0983 14.292 25.2533 14.226 26.5843 13.951L26.6943 14.699C25.3193 14.974 24.1423 15.04 22.0413 15.04H21.2713V14.292ZM21.2713 10.673H25.6603V11.421H22.1733V14.776H21.2713V10.673ZM38.3173 10.057C40.4733 10.057 41.8153 10.728 41.8153 11.883C41.8153 13.038 40.4733 13.709 38.3173 13.709C36.1503 13.709 34.8193 13.038 34.8193 11.883C34.8193 10.728 36.1503 10.057 38.3173 10.057ZM38.3173 10.761C36.7223 10.761 35.7543 11.168 35.7543 11.883C35.7543 12.587 36.7223 13.005 38.3173 13.005C39.9013 13.005 40.8803 12.587 40.8803 11.883C40.8803 11.168 39.9013 10.761 38.3173 10.761ZM34.9623 15.953H35.8643V17.042H40.7593V15.953H41.6613V19.726H34.9623V15.953ZM35.8643 17.746V18.989H40.7593V17.746H35.8643ZM33.8183 14.611H42.8053V15.359H33.8183V14.611ZM37.8553 13.423H38.7573V14.974H37.8553V13.423ZM49.2174 11.377H51.4504V12.136H49.2174V11.377ZM49.2174 13.423H51.4504V14.171H49.2174V13.423ZM46.4344 10.475H47.1714V11.74C47.1714 13.687 46.1044 15.348 44.4434 16.019L43.9594 15.293C45.4444 14.721 46.4344 13.302 46.4344 11.74V10.475ZM46.5994 10.475H47.3474V11.74C47.3474 13.192 48.3044 14.567 49.7454 15.139L49.2394 15.854C47.6664 15.194 46.5994 13.588 46.5994 11.74V10.475ZM51.2084 9.925H52.1214V17.339H51.2084V9.925ZM45.7304 18.89H52.3634V19.638H45.7304V18.89ZM45.7304 16.591H46.6434V19.297H45.7304V16.591ZM62.0395 12.257H64.5475V13.016H62.0395V12.257ZM59.4325 10.519H60.1695V11.74C60.1695 13.665 59.0915 15.271 57.4305 15.942L56.9575 15.216C58.4315 14.666 59.4325 13.258 59.4325 11.74V10.519ZM59.6085 10.519H60.3455V11.773C60.3455 13.159 61.3135 14.468 62.7545 14.996L62.2595 15.7C60.6755 15.084 59.6085 13.544 59.6085 11.773V10.519ZM64.2065 9.925H65.1195V17.361H64.2065V9.925ZM58.7285 18.89H65.3615V19.638H58.7285V18.89ZM58.7285 16.536H59.6415V19.242H58.7285V16.536ZM67.4836 14.666H68.1216C69.6836 14.666 70.6076 14.633 71.7186 14.413L71.8066 15.161C70.6626 15.381 69.7166 15.425 68.1216 15.425H67.4836V14.666ZM67.4836 10.64H71.3336V11.388H68.3636V15.073H67.4836V10.64ZM68.0886 12.62H71.2126V13.335H68.0886V12.62ZM74.5676 9.914H75.4366V15.942H74.5676V9.914ZM72.9616 12.51H74.8426V13.258H72.9616V12.51ZM72.3786 10.101H73.2366V15.887H72.3786V10.101ZM68.7706 16.47H75.4366V19.858H74.5346V17.218H68.7706V16.47ZM82.6817 10.772H83.4297V12.554C83.4297 14.842 82.1977 16.965 80.5697 17.79L80.0087 17.042C81.4827 16.338 82.6817 14.435 82.6817 12.554V10.772ZM82.8357 10.772H83.5837V12.554C83.5837 14.369 84.7717 16.195 86.2457 16.877L85.6957 17.603C84.0787 16.811 82.8357 14.765 82.8357 12.554V10.772ZM87.2797 9.903H88.1927V19.869H87.2797V9.903ZM93.8867 10.211H101.191V10.926H93.8867V10.211ZM93.9307 12.818H101.147V13.522H93.9307V12.818ZM95.3937 10.486H96.3067V13.28H95.3937V10.486ZM98.7817 10.486H99.6837V13.28H98.7817V10.486ZM93.0507 14.347H102.038V15.084H93.0507V14.347ZM94.1397 15.953H100.894V18.131H95.0637V19.33H94.1617V17.482H99.9917V16.635H94.1397V15.953ZM94.1617 19.055H101.191V19.748H94.1617V19.055ZM103.5 16.657H104.16C105.37 16.657 106.492 16.613 107.856 16.382L107.933 17.13C106.536 17.372 105.414 17.416 104.16 17.416H103.5V16.657ZM103.478 11.003H107.031V14.468H104.391V16.965H103.5V13.731H106.151V11.751H103.478V11.003ZM110.738 9.914H111.618V19.858H110.738V9.914ZM107.504 13.478H109.11V14.237H107.504V13.478ZM108.736 10.156H109.583V19.341H108.736V10.156ZM120.516 9.903H121.429V19.869H120.516V9.903ZM116.182 10.673C117.656 10.673 118.712 12.026 118.712 14.138C118.712 16.261 117.656 17.614 116.182 17.614C114.719 17.614 113.663 16.261 113.663 14.138C113.663 12.026 114.719 10.673 116.182 10.673ZM116.182 11.498C115.214 11.498 114.532 12.532 114.532 14.138C114.532 15.755 115.214 16.811 116.182 16.811C117.161 16.811 117.832 15.755 117.832 14.138C117.832 12.532 117.161 11.498 116.182 11.498ZM126.07 10.673C127.511 10.673 128.545 12.026 128.545 14.138C128.545 16.261 127.511 17.614 126.07 17.614C124.618 17.614 123.595 16.261 123.595 14.138C123.595 12.026 124.618 10.673 126.07 10.673ZM126.07 11.498C125.113 11.498 124.464 12.532 124.464 14.138C124.464 15.755 125.113 16.811 126.07 16.811C127.027 16.811 127.676 15.755 127.676 14.138C127.676 12.532 127.027 11.498 126.07 11.498ZM130.701 9.903H131.603V19.869H130.701V9.903ZM128.248 13.698H131.097V14.446H128.248V13.698ZM140.432 10.266H141.235V10.816C141.235 12.719 139.299 14.083 137.231 14.435L136.868 13.698C138.683 13.423 140.432 12.235 140.432 10.816V10.266ZM140.597 10.266H141.389V10.816C141.389 12.202 143.16 13.423 144.953 13.698L144.59 14.435C142.544 14.083 140.597 12.697 140.597 10.816V10.266ZM140.432 16.074H141.334V19.858H140.432V16.074ZM136.417 15.513H145.404V16.272H136.417V15.513ZM151.838 12.488H154.082V13.247H151.838V12.488ZM153.796 9.914H154.709V15.843H153.796V9.914ZM151.442 16.14C153.488 16.14 154.753 16.833 154.753 17.999C154.753 19.176 153.488 19.847 151.442 19.847C149.385 19.847 148.12 19.176 148.12 17.999C148.12 16.833 149.385 16.14 151.442 16.14ZM151.442 16.855C149.946 16.855 149.033 17.273 149.033 17.999C149.033 18.714 149.946 19.132 151.442 19.132C152.938 19.132 153.851 18.714 153.851 17.999C153.851 17.273 152.938 16.855 151.442 16.855ZM149.066 10.915H149.814V11.718C149.814 13.555 148.692 15.128 147.042 15.744L146.569 15.018C148.043 14.479 149.066 13.148 149.066 11.718V10.915ZM149.242 10.915H149.979V11.718C149.979 13.005 150.947 14.237 152.388 14.743L151.926 15.469C150.309 14.886 149.242 13.39 149.242 11.718V10.915ZM146.844 10.64H152.157V11.388H146.844V10.64ZM163.56 14.688H164.462V16.206H163.56V14.688ZM160.722 10.068H161.624V10.992H166.431V10.068H167.344V13.346H160.722V10.068ZM161.624 11.696V12.642H166.431V11.696H161.624ZM159.523 14.16H168.51V14.897H159.523V14.16ZM160.612 15.865H167.366V18.076H161.536V19.308H160.634V17.416H166.464V16.558H160.612V15.865ZM160.634 19.044H167.663V19.748H160.634V19.044ZM176.375 9.903H177.299V19.858H176.375V9.903ZM177.046 13.94H178.883V14.699H177.046V13.94ZM173.834 10.981H174.725C174.725 13.808 173.427 16.36 170.215 17.977L169.709 17.273C172.459 15.876 173.834 13.753 173.834 11.124V10.981ZM170.171 10.981H174.307V11.729H170.171V10.981ZM183.224 16.69L183.07 11.3H183.994L183.829 16.69H183.224ZM183.532 19.055C183.37 19.055 183.231 19 183.114 18.89C183.004 18.7727 182.949 18.637 182.949 18.483C182.949 18.3217 183.004 18.1897 183.114 18.087C183.231 17.977 183.37 17.922 183.532 17.922C183.7 17.922 183.836 17.977 183.939 18.087C184.049 18.1897 184.104 18.3217 184.104 18.483C184.104 18.637 184.049 18.7727 183.939 18.89C183.836 19 183.7 19.055 183.532 19.055ZM63.1241 32.134C62.7208 31.4667 62.4054 30.6967 62.1781 29.824C61.9581 28.944 61.8481 27.998 61.8481 26.986C61.8481 25.974 61.9581 25.028 62.1781 24.148C62.4054 23.2607 62.7208 22.4907 63.1241 21.838H63.8721C63.4394 22.5933 63.1204 23.3963 62.9151 24.247C62.7171 25.0903 62.6181 26.0033 62.6181 26.986C62.6181 27.9687 62.7171 28.8853 62.9151 29.736C63.1204 30.5793 63.4394 31.3787 63.8721 32.134H63.1241ZM71.7901 27.239H72.6921V30.869H71.7901V27.239ZM67.7531 26.92H76.7401V27.679H67.7531V26.92ZM71.7791 22.619H72.5821V22.872C72.5821 24.588 70.7231 25.853 68.6331 26.172L68.3141 25.446C70.1071 25.204 71.7791 24.115 71.7791 22.872V22.619ZM71.9001 22.619H72.6921V22.872C72.6921 24.104 74.3751 25.204 76.1571 25.446L75.8271 26.172C73.7481 25.864 71.9001 24.566 71.9001 22.872V22.619ZM68.6221 22.135H75.8711V22.883H68.6221V22.135ZM71.7901 20.914H72.6921V22.399H71.7901V20.914ZM78.3343 22.047H86.3313V22.784H78.3343V22.047ZM77.8723 27.36H86.8813V28.108H77.8723V27.36ZM81.8983 27.965H82.8113V30.869H81.8983V27.965ZM82.3603 23.356C84.3843 23.356 85.5833 23.95 85.5833 25.017C85.5833 26.073 84.3843 26.678 82.3603 26.678C80.3253 26.678 79.1263 26.073 79.1263 25.017C79.1263 23.95 80.3253 23.356 82.3603 23.356ZM82.3603 24.06C80.9083 24.06 80.0723 24.401 80.0723 25.017C80.0723 25.633 80.9083 25.974 82.3603 25.974C83.8123 25.974 84.6483 25.633 84.6483 25.017C84.6483 24.401 83.8123 24.06 82.3603 24.06ZM81.8983 20.859H82.8113V22.542H81.8983V20.859ZM94.8853 21.266H95.6883V21.816C95.6883 23.719 93.7523 25.083 91.6843 25.435L91.3213 24.698C93.1363 24.423 94.8853 23.235 94.8853 21.816V21.266ZM95.0503 21.266H95.8423V21.816C95.8423 23.202 97.6133 24.423 99.4063 24.698L99.0433 25.435C96.9973 25.083 95.0503 23.697 95.0503 21.816V21.266ZM94.8853 27.074H95.7873V30.858H94.8853V27.074ZM90.8703 26.513H99.8573V27.272H90.8703V26.513ZM106.291 23.488H108.535V24.247H106.291V23.488ZM108.249 20.914H109.162V26.843H108.249V20.914ZM105.895 27.14C107.941 27.14 109.206 27.833 109.206 28.999C109.206 30.176 107.941 30.847 105.895 30.847C103.838 30.847 102.573 30.176 102.573 28.999C102.573 27.833 103.838 27.14 105.895 27.14ZM105.895 27.855C104.399 27.855 103.486 28.273 103.486 28.999C103.486 29.714 104.399 30.132 105.895 30.132C107.391 30.132 108.304 29.714 108.304 28.999C108.304 28.273 107.391 27.855 105.895 27.855ZM103.519 21.915H104.267V22.718C104.267 24.555 103.145 26.128 101.495 26.744L101.022 26.018C102.496 25.479 103.519 24.148 103.519 22.718V21.915ZM103.695 21.915H104.432V22.718C104.432 24.005 105.4 25.237 106.841 25.743L106.379 26.469C104.762 25.886 103.695 24.39 103.695 22.718V21.915ZM101.297 21.64H106.61V22.388H101.297V21.64ZM117.948 23.312H119.884V24.071H117.948V23.312ZM117.948 26.337H119.884V27.096H117.948V26.337ZM121.556 20.914H122.436V30.858H121.556V20.914ZM119.609 21.123H120.467V30.363H119.609V21.123ZM116.221 21.739C117.508 21.739 118.344 23.07 118.344 25.204C118.344 27.338 117.508 28.669 116.221 28.669C114.934 28.669 114.109 27.338 114.109 25.204C114.109 23.07 114.934 21.739 116.221 21.739ZM116.221 22.586C115.44 22.586 114.934 23.598 114.934 25.204C114.934 26.81 115.44 27.822 116.221 27.822C117.013 27.822 117.508 26.81 117.508 25.204C117.508 23.598 117.013 22.586 116.221 22.586ZM129.409 23.488H131.653V24.247H129.409V23.488ZM131.367 20.914H132.28V26.843H131.367V20.914ZM129.013 27.14C131.059 27.14 132.324 27.833 132.324 28.999C132.324 30.176 131.059 30.847 129.013 30.847C126.956 30.847 125.691 30.176 125.691 28.999C125.691 27.833 126.956 27.14 129.013 27.14ZM129.013 27.855C127.517 27.855 126.604 28.273 126.604 28.999C126.604 29.714 127.517 30.132 129.013 30.132C130.509 30.132 131.422 29.714 131.422 28.999C131.422 28.273 130.509 27.855 129.013 27.855ZM126.637 21.915H127.385V22.718C127.385 24.555 126.263 26.128 124.613 26.744L124.14 26.018C125.614 25.479 126.637 24.148 126.637 22.718V21.915ZM126.813 21.915H127.55V22.718C127.55 24.005 128.518 25.237 129.959 25.743L129.497 26.469C127.88 25.886 126.813 24.39 126.813 22.718V21.915ZM124.415 21.64H129.728V22.388H124.415V21.64ZM134.864 32.134H134.116C134.556 31.3787 134.875 30.5793 135.073 29.736C135.278 28.8853 135.381 27.9687 135.381 26.986C135.381 26.0033 135.278 25.0903 135.073 24.247C134.875 23.3963 134.556 22.5933 134.116 21.838H134.864C135.282 22.4907 135.601 23.2607 135.821 24.148C136.041 25.028 136.151 25.974 136.151 26.986C136.151 27.998 136.041 28.944 135.821 29.824C135.601 30.6967 135.282 31.4667 134.864 32.134Z" fill="#FD1919"/>
</svg>
