<svg width="48" height="48" viewBox="0 0 48 48" fill="none" xmlns="http://www.w3.org/2000/svg">
<path d="M23.5 19C31.7495 19 35.8742 19 38.438 19.6588C41 20.3185 41 21.3787 41 23.5C41 25.6213 41 26.682 38.438 27.3408C35.8725 28 31.7495 28 23.5 28C15.2505 28 11.1257 28 8.56375 27.3408C6 26.6824 6 25.6213 6 23.5C6 21.3787 6 20.318 8.56375 19.6588C11.124 19 15.2505 19 23.5 19Z" fill="white"/>
<path d="M19 23.5C19 15.2505 19 11.1258 19.6588 8.562C20.3185 6 21.3787 6 23.5 6C25.6213 6 26.6819 6 27.3407 8.562C28 11.1275 28 15.2505 28 23.5C28 31.7495 28 35.8743 27.3407 38.4362C26.6824 41 25.6213 41 23.5 41C21.3787 41 20.3181 41 19.6588 38.4362C19 35.876 19 31.7495 19 23.5Z" fill="white"/>
</svg>
