<svg width="32" height="32" viewBox="0 0 32 32" fill="none" xmlns="http://www.w3.org/2000/svg">
<g clip-path="url(#clip0_20_452)">
<path d="M24.5 0H7.5C3.35786 0 0 3.35786 0 7.5V24.5C0 28.6421 3.35786 32 7.5 32H24.5C28.6421 32 32 28.6421 32 24.5V7.5C32 3.35786 28.6421 0 24.5 0Z" fill="white"/>
<path d="M16.0001 3.75C9.09738 3.75 3.5 9.34625 3.5 16.2501C3.5 21.773 7.08162 26.4585 12.0484 28.1114C12.673 28.2271 12.9024 27.8403 12.9024 27.5101C12.9024 27.212 12.8907 26.2274 12.8854 25.1829C9.40788 25.939 8.67412 23.708 8.67412 23.708C8.10537 22.2631 7.28613 21.879 7.28613 21.879C6.152 21.1031 7.37162 21.1191 7.37162 21.1191C8.62687 21.2073 9.28788 22.4073 9.28788 22.4073C10.4028 24.3183 12.2121 23.7658 12.9254 23.4464C13.0376 22.6384 13.3615 22.087 13.719 21.7749C10.9426 21.4588 8.024 20.3869 8.024 15.5973C8.024 14.2325 8.51225 13.1174 9.31188 12.242C9.182 11.9271 8.75412 10.6558 9.43287 8.934C9.43287 8.934 10.4826 8.59813 12.8714 10.2153C13.8685 9.93838 14.9378 9.7995 16.0001 9.79475C17.0624 9.7995 18.1326 9.93838 19.1315 10.2154C21.5174 8.598 22.5656 8.93413 22.5656 8.93413C23.246 10.6558 22.818 11.9273 22.6881 12.242C23.4896 13.1174 23.9746 14.2325 23.9746 15.5973C23.9746 20.3984 21.0504 21.4555 18.2669 21.7649C18.7152 22.1529 19.1147 22.9135 19.1147 24.0798C19.1147 25.7523 19.1003 27.0984 19.1003 27.5101C19.1003 27.8428 19.3253 28.2325 19.9589 28.1098C24.9229 26.455 28.5 21.7711 28.5 16.2501C28.5 9.34638 22.9034 3.75 16.0001 3.75ZM8.18175 21.5566C8.15425 21.6188 8.0565 21.6374 7.9675 21.5948C7.87675 21.554 7.82587 21.4693 7.85525 21.407C7.88212 21.343 7.98013 21.3253 8.0705 21.3681C8.16138 21.4089 8.21313 21.4944 8.18175 21.5566ZM8.79663 22.1053C8.737 22.1606 8.62038 22.1349 8.54138 22.0475C8.45963 21.9604 8.44425 21.8439 8.50475 21.7878C8.56613 21.7325 8.67925 21.7584 8.76112 21.8455C8.84287 21.9338 8.85888 22.0494 8.79663 22.1053ZM9.21838 22.8073C9.14175 22.8605 9.0165 22.8106 8.93913 22.6994C8.8625 22.5883 8.8625 22.455 8.94075 22.4015C9.01837 22.3481 9.14175 22.3961 9.22025 22.5065C9.29663 22.6195 9.29663 22.7529 9.21838 22.8073ZM9.93175 23.6203C9.86325 23.6958 9.71738 23.6755 9.6105 23.5724C9.50125 23.4716 9.47075 23.3286 9.5395 23.253C9.60888 23.1773 9.75562 23.1986 9.86325 23.3009C9.97175 23.4014 10.0049 23.5455 9.93175 23.6203ZM10.8538 23.8946C10.8235 23.9926 10.683 24.0371 10.5414 23.9955C10.4001 23.9526 10.3075 23.838 10.3361 23.739C10.3655 23.6405 10.5066 23.5941 10.6493 23.6386C10.7905 23.6813 10.8831 23.7951 10.8538 23.8946ZM11.903 24.0111C11.9065 24.1141 11.7865 24.1996 11.6379 24.2015C11.4884 24.2049 11.3675 24.1214 11.3659 24.02C11.3659 23.9159 11.4832 23.8313 11.6326 23.8288C11.7814 23.8259 11.903 23.9086 11.903 24.0111ZM12.9338 23.9716C12.9516 24.0721 12.8484 24.1755 12.7008 24.203C12.5556 24.2295 12.4213 24.1674 12.4029 24.0676C12.3849 23.9645 12.49 23.8613 12.6349 23.8345C12.7828 23.8089 12.915 23.8694 12.9338 23.9716Z" fill="#141414"/>
</g>
<defs>
<clipPath id="clip0_20_452">
<rect width="32" height="32" fill="white"/>
</clipPath>
</defs>
</svg>
