<svg width="48" height="48" viewBox="0 0 48 48" fill="none" xmlns="http://www.w3.org/2000/svg">
<path d="M39.113 12.6C39.5945 12.6005 40.0576 12.786 40.4077 13.1184C40.7578 13.4509 40.9685 13.9052 40.9967 14.3886C41.025 14.8721 40.8686 15.3481 40.5595 15.7195C40.2505 16.0908 39.8121 16.3295 39.334 16.3867L39.113 16.4H38.96L37.2239 37.3C37.2239 38.7539 36.6716 40.1529 35.6799 41.2107C34.6882 42.2685 33.3321 42.9052 31.889 42.9905L31.5565 43H16.4435C13.4247 43 10.9575 40.6269 10.7913 37.775L10.7818 37.4577L9.03816 16.4H8.88703C8.40553 16.3995 7.94241 16.214 7.59228 15.8816C7.24216 15.5491 7.03147 15.0948 7.00325 14.6114C6.97503 14.1279 7.13142 13.6519 7.44046 13.2805C7.7495 12.9092 8.18787 12.6705 8.666 12.6133L8.88703 12.6H39.113ZM27.7782 5C28.7803 5 29.7413 5.40036 30.4499 6.11299C31.1584 6.82563 31.5565 7.79218 31.5565 8.8C31.556 9.28427 31.3716 9.75006 31.041 10.1022C30.7105 10.4543 30.2587 10.6662 29.7781 10.6946C29.2974 10.723 28.8241 10.5657 28.4549 10.2549C28.0856 9.94408 27.8483 9.50318 27.7915 9.0223L27.7782 8.8H20.2218L20.2085 9.0223C20.1517 9.50318 19.9144 9.94408 19.5451 10.2549C19.1759 10.5657 18.7026 10.723 18.2219 10.6946C17.7413 10.6662 17.2895 10.4543 16.959 10.1022C16.6284 9.75006 16.444 9.28427 16.4435 8.8C16.4432 7.8413 16.8032 6.91792 17.4514 6.21496C18.0995 5.51199 18.9879 5.0814 19.9384 5.0095L20.2218 5H27.7782Z" fill="white"/>
</svg>
