<svg width="48" height="48" viewBox="0 0 48 48" fill="none" xmlns="http://www.w3.org/2000/svg">
<g id="icon_add player">
<path id="Vector" fill-rule="evenodd" clip-rule="evenodd" d="M18 8C15.8783 8 13.8434 8.84285 12.3431 10.3431C10.8429 11.8434 10 13.8783 10 16C10 18.1217 10.8429 20.1566 12.3431 21.6569C13.8434 23.1571 15.8783 24 18 24C20.1217 24 22.1566 23.1571 23.6569 21.6569C25.1571 20.1566 26 18.1217 26 16C26 13.8783 25.1571 11.8434 23.6569 10.3431C22.1566 8.84285 20.1217 8 18 8ZM14 26C11.8783 26 9.84344 26.8429 8.34315 28.3431C6.84285 29.8434 6 31.8783 6 34V36C6 37.0609 6.42143 38.0783 7.17157 38.8284C7.92172 39.5786 8.93913 40 10 40H26C27.0609 40 28.0783 39.5786 28.8284 38.8284C29.5786 38.0783 30 37.0609 30 36V34C30 31.8783 29.1571 29.8434 27.6569 28.3431C26.1566 26.8429 24.1217 26 22 26H14ZM30 24C30 23.4696 30.2107 22.9609 30.5858 22.5858C30.9609 22.2107 31.4696 22 32 22H34V20C34 19.4696 34.2107 18.9609 34.5858 18.5858C34.9609 18.2107 35.4696 18 36 18C36.5304 18 37.0391 18.2107 37.4142 18.5858C37.7893 18.9609 38 19.4696 38 20V22H40C40.5304 22 41.0391 22.2107 41.4142 22.5858C41.7893 22.9609 42 23.4696 42 24C42 24.5304 41.7893 25.0391 41.4142 25.4142C41.0391 25.7893 40.5304 26 40 26H38V28C38 28.5304 37.7893 29.0391 37.4142 29.4142C37.0391 29.7893 36.5304 30 36 30C35.4696 30 34.9609 29.7893 34.5858 29.4142C34.2107 29.0391 34 28.5304 34 28V26H32C31.4696 26 30.9609 25.7893 30.5858 25.4142C30.2107 25.0391 30 24.5304 30 24Z" fill="white"/>
</g>
</svg>
