<svg width="32" height="32" viewBox="0 0 32 32" fill="none" xmlns="http://www.w3.org/2000/svg">
<g clip-path="url(#clip0_20_456)">
<path d="M0 0H32V32H0V0Z" fill="black"/>
<path d="M24.5 0H7.5C3.35787 0 0 3.35787 0 7.5V24.5C0 28.6421 3.35787 32 7.5 32H24.5C28.6421 32 32 28.6421 32 24.5V7.5C32 3.35787 28.6421 0 24.5 0Z" fill="white"/>
<mask id="mask0_20_456" style="mask-type:luminance" maskUnits="userSpaceOnUse" x="5" y="5" width="22" height="22">
<path d="M5 5H26.875V26.875H5V5Z" fill="white"/>
</mask>
<g mask="url(#mask0_20_456)">
<path d="M6.31625 5.94369L18.4202 5.04969C19.9071 4.92219 20.2891 5.00807 21.224 5.68782L25.0877 8.40969C25.725 8.87782 25.9373 9.00532 25.9373 9.51507V24.4432C25.9373 25.3788 25.5975 25.9322 24.4081 26.0167L10.3521 26.8681C9.45963 26.9102 9.03463 26.7827 8.56713 26.1871L5.72188 22.4871C5.2115 21.8062 5 21.2964 5 20.7006V7.43119C5 6.66619 5.33975 6.02832 6.31625 5.94369Z" fill="white"/>
<path fill-rule="evenodd" clip-rule="evenodd" d="M18.4202 5.05007L6.31625 5.94407C5.33975 6.02844 5 6.66657 5 7.43132V20.7007C5 21.2963 5.2115 21.8061 5.72188 22.4872L8.56713 26.1869C9.03463 26.7826 9.45963 26.9103 10.3521 26.8679L24.4084 26.0169C25.5969 25.9323 25.9374 25.3789 25.9374 24.4436V9.51532C25.9374 9.03194 25.7465 8.89257 25.1842 8.48007L21.224 5.68782C20.2893 5.00807 19.9071 4.92219 18.4202 5.04969V5.05007ZM10.67 9.27094C9.52225 9.34819 9.26187 9.36569 8.61 8.83569L6.95275 7.51744C6.78438 7.34694 6.869 7.13407 7.29338 7.09157L18.9294 6.24132C19.9065 6.15607 20.4154 6.49657 20.7975 6.79407L22.7931 8.24007C22.8784 8.28307 23.0906 8.53757 22.8354 8.53757L10.8188 9.26094L10.67 9.27094ZM9.33187 24.3159V11.6431C9.33187 11.0897 9.50187 10.8343 10.0106 10.7916L23.8125 9.98344C24.2806 9.94132 24.4921 10.2388 24.4921 10.7913V23.3797C24.4921 23.9332 24.4069 24.4013 23.6427 24.4436L10.4353 25.2092C9.67125 25.2513 9.33212 24.9969 9.33212 24.3159H9.33187ZM22.3694 12.3226C22.4541 12.7054 22.3694 13.0882 21.9866 13.1319L21.35 13.2582V22.6148C20.7973 22.9123 20.2884 23.0822 19.8633 23.0822C19.1835 23.0822 19.0137 22.8693 18.5047 22.2319L14.342 15.6826V22.0191L15.6589 22.3173C15.6589 22.3173 15.6589 23.0829 14.5964 23.0829L11.6672 23.2528C11.582 23.0822 11.6672 22.6572 11.9641 22.5726L12.7291 22.3603V13.9822L11.6675 13.8963C11.5821 13.5134 11.7944 12.9607 12.3894 12.9178L15.5321 12.7063L19.8634 19.3403V13.4712L18.7594 13.3443C18.6741 12.8756 19.0138 12.5349 19.4381 12.4934L22.3694 12.3226Z" fill="#141414"/>
</g>
</g>
<defs>
<clipPath id="clip0_20_456">
<rect width="32" height="32" fill="white"/>
</clipPath>
</defs>
</svg>
