<svg width="48" height="49" viewBox="0 0 48 49" fill="none" xmlns="http://www.w3.org/2000/svg">
<g id="Group">
<path id="Vector" fill-rule="evenodd" clip-rule="evenodd" d="M11.338 10.02C11.392 9.56589 11.5512 9.13064 11.803 8.74884C12.0547 8.36705 12.3921 8.04925 12.7882 7.8207C13.1843 7.59216 13.6283 7.45917 14.0848 7.43232C14.5413 7.40547 14.9978 7.48548 15.418 7.66601C17.542 8.57401 22.302 10.732 28.342 14.218C34.384 17.706 38.634 20.752 40.48 22.134C42.056 23.316 42.06 25.66 40.482 26.846C38.654 28.22 34.456 31.226 28.342 34.758C22.222 38.29 17.518 40.422 15.414 41.318C13.602 42.092 11.574 40.918 11.338 38.964C11.062 36.68 10.546 31.494 10.546 24.49C10.546 17.49 11.06 12.306 11.338 10.02Z" fill="white"/>
</g>
</svg>
