<svg width="48" height="48" viewBox="0 0 48 48" fill="none" xmlns="http://www.w3.org/2000/svg">
<path d="M10 23.5C10 15.7219 10 11.8328 10.6588 9.4156C11.3185 7 12.3787 7 14.5 7C16.6213 7 17.6819 7 18.3407 9.4156C19 11.8345 19 15.7219 19 23.5C19 31.2781 19 35.1671 18.3407 37.5827C17.6824 40 16.6213 40 14.5 40C12.3787 40 11.3181 40 10.6588 37.5827C10 35.1688 10 31.2781 10 23.5Z" fill="white"/>
<path d="M29 23.5C29 15.7219 29 11.8328 29.6588 9.4156C30.3185 7 31.3787 7 33.5 7C35.6213 7 36.6819 7 37.3407 9.4156C38 11.8345 38 15.7219 38 23.5C38 31.2781 38 35.1671 37.3407 37.5827C36.6824 40 35.6213 40 33.5 40C31.3787 40 30.3181 40 29.6588 37.5827C29 35.1688 29 31.2781 29 23.5Z" fill="white"/>
</svg>
