<svg width="32" height="32" viewBox="0 0 32 32" fill="none" xmlns="http://www.w3.org/2000/svg">
<g clip-path="url(#clip0_20_814)">
<mask id="mask0_20_814" style="mask-type:luminance" maskUnits="userSpaceOnUse" x="0" y="0" width="32" height="32">
<path d="M0 0H32V32H0V0Z" fill="white"/>
</mask>
<g mask="url(#mask0_20_814)">
<path d="M24.5 0H7.5C3.35787 0 0 3.35787 0 7.5V24.5C0 28.6421 3.35787 32 7.5 32H24.5C28.6421 32 32 28.6421 32 24.5V7.5C32 3.35787 28.6421 0 24.5 0Z" fill="white"/>
</g>
<path d="M13.5223 18.6992L20.0044 15.3451L13.5223 11.9508V18.6992ZM15.9999 7.13428C17.4999 7.13428 18.9486 7.1544 20.3459 7.19465C21.7432 7.2349 22.7678 7.27739 23.4196 7.32211L24.3973 7.37577C24.4062 7.37577 24.4821 7.38248 24.6249 7.3959C24.7678 7.40931 24.8705 7.42273 24.933 7.43615C24.9955 7.44956 25.1004 7.46969 25.2477 7.49652C25.395 7.52335 25.5223 7.55913 25.6294 7.60385C25.7365 7.64857 25.8615 7.70671 26.0044 7.77827C26.1473 7.84982 26.2857 7.93703 26.4196 8.03989C26.5535 8.14275 26.683 8.26126 26.808 8.39542C26.8615 8.44909 26.9307 8.53182 27.0156 8.64363C27.1004 8.75543 27.2298 9.01705 27.404 9.42849C27.5781 9.83992 27.6964 10.2916 27.7589 10.7835C27.8303 11.356 27.8861 11.9664 27.9263 12.6149C27.9665 13.2633 27.991 13.7709 27.9999 14.1377V16.4989C28.0089 17.7959 27.9285 19.0928 27.7589 20.3897C27.6964 20.8816 27.5848 21.3266 27.424 21.7246C27.2633 22.1227 27.1205 22.3977 26.9955 22.5497L26.808 22.7778C26.683 22.912 26.5535 23.0305 26.4196 23.1334C26.2857 23.2362 26.1473 23.3212 26.0044 23.3883C25.8615 23.4554 25.7365 23.5113 25.6294 23.556C25.5223 23.6007 25.395 23.6365 25.2477 23.6633C25.1004 23.6901 24.9932 23.7103 24.9263 23.7237C24.8593 23.7371 24.7566 23.7505 24.6182 23.7639C24.4798 23.7774 24.4062 23.7841 24.3973 23.7841C22.1562 23.954 19.3571 24.039 15.9999 24.039C14.1517 24.0211 12.5468 23.992 11.1852 23.9518C9.8236 23.9115 8.92851 23.878 8.49994 23.8511L7.84369 23.7975L7.36154 23.7438C7.04012 23.6991 6.79681 23.6544 6.63163 23.6096C6.46645 23.5649 6.23878 23.471 5.9486 23.3279C5.65842 23.1848 5.40619 23.0014 5.1919 22.7778C5.13833 22.7242 5.06913 22.6414 4.98431 22.5296C4.89949 22.4178 4.77003 22.1562 4.59592 21.7448C4.42181 21.3333 4.30351 20.8816 4.24101 20.3897C4.16958 19.8173 4.11378 19.2068 4.0736 18.5584C4.03342 17.9099 4.00887 17.4023 3.99994 17.0356V14.6743C3.99101 13.3774 4.07137 12.0805 4.24101 10.7835C4.30351 10.2916 4.41512 9.84663 4.57583 9.44861C4.73654 9.05059 4.8794 8.77555 5.0044 8.6235L5.1919 8.39542C5.3169 8.26126 5.44637 8.14275 5.58029 8.03989C5.71422 7.93703 5.85262 7.84982 5.99547 7.77827C6.13833 7.70671 6.26333 7.64857 6.37047 7.60385C6.47762 7.55913 6.60485 7.52335 6.75217 7.49652C6.89949 7.46969 7.0044 7.44956 7.0669 7.43615C7.1294 7.42273 7.23208 7.40931 7.37494 7.3959C7.51779 7.38248 7.59369 7.37577 7.60262 7.37577C9.84369 7.21478 12.6428 7.13428 15.9999 7.13428Z" fill="#141414"/>
</g>
<defs>
<clipPath id="clip0_20_814">
<rect width="32" height="32" fill="white"/>
</clipPath>
</defs>
</svg>
